<?xml version="1.0" standalone="no"?>
<!DOCTYPE svg PUBLIC "-//W3C//DTD SVG 20010904//EN"
 "http://www.w3.org/TR/2001/REC-SVG-20010904/DTD/svg10.dtd">
<svg version="1.0" xmlns="http://www.w3.org/2000/svg"
 width="25.000000pt" height="30.000000pt" viewBox="0 0 25.000000 30.000000"
 preserveAspectRatio="xMidYMid meet">

<g transform="translate(0.000000,30.000000) scale(0.100000,-0.100000)"
fill="#000000" stroke="none">
<path d="M0 150 l0 -150 125 0 125 0 0 150 0 150 -125 0 -125 0 0 -150z m160
70 l0 -70 42 0 42 0 -35 -36 c-18 -20 -46 -44 -60 -55 l-27 -19 -58 55 -59 55
43 0 42 0 0 70 0 70 35 0 35 0 0 -70z"/>
</g>
</svg>
